<svg width="34" height="34" viewBox="0 0 34 34" fill="none" xmlns="http://www.w3.org/2000/svg">
<path d="M33 33L22.3333 22.3333M25.8889 13.4444C25.8889 15.0787 25.567 16.6969 24.9416 18.2067C24.3162 19.7166 23.3996 21.0884 22.244 22.244C21.0884 23.3996 19.7166 24.3162 18.2067 24.9416C16.6969 25.567 15.0787 25.8889 13.4444 25.8889C11.8102 25.8889 10.192 25.567 8.68216 24.9416C7.17233 24.3162 5.80047 23.3996 4.64489 22.244C3.48932 21.0884 2.57267 19.7166 1.94728 18.2067C1.32189 16.6969 1 15.0787 1 13.4444C1 10.144 2.31111 6.97868 4.64489 4.64489C6.97868 2.31111 10.144 1 13.4444 1C16.7449 1 19.9102 2.31111 22.244 4.64489C24.5778 6.97868 25.8889 10.144 25.8889 13.4444Z" stroke="#666666" stroke-linecap="round" stroke-linejoin="round"/>
</svg>
