<svg width="29" height="34" viewBox="0 0 29 34" fill="none" xmlns="http://www.w3.org/2000/svg">
<path d="M14.8965 2.5625C16.2226 2.5625 17.4943 3.10575 18.432 4.07273C19.3697 5.03972 19.8965 6.35123 19.8965 7.71875V8.75H9.89648V7.71875C9.89648 6.35123 10.4233 5.03972 11.361 4.07273C12.2986 3.10575 13.5704 2.5625 14.8965 2.5625V2.5625ZM21.8965 8.75V7.71875C21.8965 5.80422 21.159 3.9681 19.8462 2.61432C18.5335 1.26054 16.753 0.5 14.8965 0.5C13.04 0.5 11.2595 1.26054 9.94674 2.61432C8.63398 3.9681 7.89648 5.80422 7.89648 7.71875V8.75H0.896484V29.375C0.896484 30.469 1.31791 31.5182 2.06806 32.2918C2.8182 33.0654 3.83562 33.5 4.89648 33.5H24.8965C25.9574 33.5 26.9748 33.0654 27.7249 32.2918C28.4751 31.5182 28.8965 30.469 28.8965 29.375V8.75H21.8965ZM2.89648 10.8125H26.8965V29.375C26.8965 29.922 26.6858 30.4466 26.3107 30.8334C25.9356 31.2202 25.4269 31.4375 24.8965 31.4375H4.89648C4.36605 31.4375 3.85734 31.2202 3.48227 30.8334C3.1072 30.4466 2.89648 29.922 2.89648 29.375V10.8125Z" fill="black"/>
</svg>
