<svg width="324" height="161" viewBox="0 0 324 161" fill="none" xmlns="http://www.w3.org/2000/svg">
<rect width="323" height="161" transform="translate(0.5)" fill="white"/>
<rect x="0.5" width="165" height="161" fill="black"/>
<path d="M22.4416 114.484V117H63.6861V114.484C54.2775 114.484 52.7459 113.171 52.7459 104.966V83.5231C61.8262 83.5231 72.4382 100.043 72.4382 108.904C72.4382 112.515 70.6878 114.484 67.2963 114.484H65.6553V117H102.195V114.484H101.211C96.9442 114.484 95.3032 112.077 93.2245 107.92C83.4878 88.4462 76.8143 82.6479 64.2331 82.6479H60.7322V82.3197C81.7374 82.3197 93.2245 75.6462 93.2245 63.3932C93.2245 51.2496 81.7374 44.5761 60.7322 44.5761H22.4416V47.0923C31.8502 47.0923 33.3818 48.4051 33.3818 56.6103V104.966C33.3818 113.171 31.8502 114.484 22.4416 114.484ZM52.7459 71.7077V47.0923H60.7322C67.1869 47.0923 72.7664 54.7504 72.7664 63.3932C72.7664 72.1453 67.1869 79.9128 60.7322 79.9128H58.6536C54.0587 79.9128 52.7459 78.1624 52.7459 71.7077ZM103.439 89.6496C103.439 106.497 116.458 117.875 135.604 117.875C145.559 117.875 153.764 114.156 158.797 107.263L155.186 104.856C151.248 111.968 143.371 115.359 137.135 115.359C122.257 115.359 122.147 96.7607 122.147 86.1487H158.797C158.797 71.3795 149.498 61.4239 132.103 61.4239C114.708 61.4239 103.439 72.4735 103.439 89.6496ZM122.257 83.6325C123.022 70.2855 126.304 63.9402 132.321 63.9402C138.557 63.9402 141.183 69.8479 141.621 83.6325H122.257Z" fill="white"/>
<path d="M167.546 47.0923C173.017 47.0923 175.095 48.4051 179.143 56.9385L207.806 117H211.088C218.746 103.872 238.329 47.0923 254.193 47.0923V44.5761H229.468V47.0923C233.625 47.0923 236.47 47.7487 236.47 50.3744C236.47 55.9538 223.888 83.3043 217.981 95.1197L199.82 56.1726C197.194 50.5932 198.07 47.0923 202.227 47.0923H207.806V44.5761H164.811V47.0923H167.546ZM244.934 89.6496C244.934 106.497 257.953 117.875 277.099 117.875C287.054 117.875 295.259 114.156 300.292 107.263L296.681 104.856C292.743 111.968 284.866 115.359 278.63 115.359C263.752 115.359 263.642 96.7607 263.642 86.1487H300.292C300.292 71.3795 290.993 61.4239 273.598 61.4239C256.203 61.4239 244.934 72.4735 244.934 89.6496ZM263.752 83.6325C264.517 70.2855 267.799 63.9402 273.816 63.9402C280.052 63.9402 282.678 69.8479 283.116 83.6325H263.752Z" fill="black"/>
</svg>
