<svg width="105" height="52" viewBox="0 0 105 52" fill="none" xmlns="http://www.w3.org/2000/svg">
<rect width="104" height="52" transform="translate(0.5)" fill="white"/>
<rect x="0.5" width="53.1269" height="52" fill="black"/>
<path d="M13.2492 35.2923V36H24.8492V35.2923C22.2031 35.2923 21.7723 34.9231 21.7723 32.6154V26.5846C24.3261 26.5846 27.3107 31.2308 27.3107 33.7231C27.3107 34.7385 26.8184 35.2923 25.8646 35.2923H25.4031V36H35.68V35.2923H35.4031C34.2031 35.2923 33.7415 34.6154 33.1569 33.4462C30.4184 27.9692 28.5415 26.3385 25.0031 26.3385H24.0184V26.2462C29.9261 26.2462 33.1569 24.3692 33.1569 20.9231C33.1569 17.5077 29.9261 15.6308 24.0184 15.6308H13.2492V16.3385C15.8954 16.3385 16.3261 16.7077 16.3261 19.0154V32.6154C16.3261 34.9231 15.8954 35.2923 13.2492 35.2923ZM21.7723 23.2615V16.3385H24.0184C25.8338 16.3385 27.4031 18.4923 27.4031 20.9231C27.4031 23.3846 25.8338 25.5692 24.0184 25.5692H23.4338C22.1415 25.5692 21.7723 25.0769 21.7723 23.2615ZM36.0298 28.3077C36.0298 33.0462 39.6914 36.2462 45.076 36.2462C47.876 36.2462 50.1837 35.2 51.5991 33.2615L50.5837 32.5846C49.476 34.5846 47.2606 35.5385 45.5068 35.5385C41.3221 35.5385 41.2914 30.3077 41.2914 27.3231H51.5991C51.5991 23.1692 48.9837 20.3692 44.0914 20.3692C39.1991 20.3692 36.0298 23.4769 36.0298 28.3077ZM41.3221 26.6154C41.5375 22.8615 42.4606 21.0769 44.1529 21.0769C45.9068 21.0769 46.6452 22.7385 46.7683 26.6154H41.3221Z" fill="white"/>
<path d="M54.0599 16.3385C55.5984 16.3385 56.183 16.7077 57.3215 19.1077L65.383 36H66.3061C68.4599 32.3077 73.9676 16.3385 78.4292 16.3385V15.6308H71.4753V16.3385C72.6446 16.3385 73.4446 16.5231 73.4446 17.2615C73.4446 18.8308 69.9061 26.5231 68.2446 29.8462L63.1369 18.8923C62.3984 17.3231 62.6446 16.3385 63.8138 16.3385H65.383V15.6308H53.2907V16.3385H54.0599ZM75.8253 28.3077C75.8253 33.0462 79.4868 36.2462 84.8715 36.2462C87.6715 36.2462 89.9792 35.2 91.3945 33.2615L90.3792 32.5846C89.2715 34.5846 87.0561 35.5385 85.3022 35.5385C81.1176 35.5385 81.0868 30.3077 81.0868 27.3231H91.3945C91.3945 23.1692 88.7792 20.3692 83.8868 20.3692C78.9945 20.3692 75.8253 23.4769 75.8253 28.3077ZM81.1176 26.6154C81.333 22.8615 82.2561 21.0769 83.9484 21.0769C85.7022 21.0769 86.4407 22.7385 86.5638 26.6154H81.1176Z" fill="black"/>
</svg>
