<svg width="70" height="34" viewBox="0 0 70 34" fill="none" xmlns="http://www.w3.org/2000/svg">
<rect width="69" height="34" transform="translate(0.5)" fill="white"/>
<rect x="0.5" width="35.2477" height="34" fill="black"/>
<path d="M8.83281 23.5282V24H16.5661V23.5282C14.802 23.5282 14.5149 23.2821 14.5149 21.7436V17.7231C16.2174 17.7231 18.2072 20.8205 18.2072 22.4821C18.2072 23.159 17.879 23.5282 17.2431 23.5282H16.9354V24H23.7867V23.5282H23.602C22.802 23.5282 22.4943 23.0769 22.1046 22.2974C20.279 18.6462 19.0277 17.559 16.6687 17.559H16.0123V17.4974C19.9508 17.4974 22.1046 16.2462 22.1046 13.9487C22.1046 11.6718 19.9508 10.4205 16.0123 10.4205H8.83281V10.8923C10.5969 10.8923 10.8841 11.1385 10.8841 12.6769V21.7436C10.8841 23.2821 10.5969 23.5282 8.83281 23.5282ZM14.5149 15.5077V10.8923H16.0123C17.2225 10.8923 18.2687 12.3282 18.2687 13.9487C18.2687 15.5897 17.2225 17.0462 16.0123 17.0462H15.6225C14.761 17.0462 14.5149 16.7179 14.5149 15.5077ZM24.0199 18.8718C24.0199 22.0308 26.4609 24.1641 30.0507 24.1641C31.9173 24.1641 33.4558 23.4667 34.3994 22.1744L33.7225 21.7231C32.984 23.0564 31.5071 23.6923 30.3378 23.6923C27.5481 23.6923 27.5276 20.2051 27.5276 18.2154H34.3994C34.3994 15.4462 32.6558 13.5795 29.3943 13.5795C26.1327 13.5795 24.0199 15.6513 24.0199 18.8718ZM27.5481 17.7436C27.6917 15.241 28.3071 14.0513 29.4353 14.0513C30.6045 14.0513 31.0968 15.159 31.1789 17.7436H27.5481Z" fill="white"/>
<path d="M36.04 10.8923C37.0656 10.8923 37.4553 11.1385 38.2143 12.7385L43.5887 24H44.2041C45.64 21.5385 49.3118 10.8923 52.2861 10.8923V10.4205H47.6502V10.8923C48.4297 10.8923 48.963 11.0154 48.963 11.5077C48.963 12.5538 46.6041 17.6821 45.4964 19.8974L42.0912 12.5949C41.5989 11.5487 41.763 10.8923 42.5425 10.8923H43.5887V10.4205H35.5271V10.8923H36.04ZM50.5502 18.8718C50.5502 22.0308 52.9912 24.1641 56.581 24.1641C58.4476 24.1641 59.9861 23.4667 60.9297 22.1744L60.2528 21.7231C59.5143 23.0564 58.0374 23.6923 56.8682 23.6923C54.0784 23.6923 54.0579 20.2051 54.0579 18.2154H60.9297C60.9297 15.4462 59.1861 13.5795 55.9246 13.5795C52.663 13.5795 50.5502 15.6513 50.5502 18.8718ZM54.0784 17.7436C54.222 15.241 54.8374 14.0513 55.9656 14.0513C57.1348 14.0513 57.6271 15.159 57.7092 17.7436H54.0784Z" fill="black"/>
</svg>
