<svg width="49" height="24" viewBox="0 0 49 24" fill="none" xmlns="http://www.w3.org/2000/svg">
<rect width="48" height="24" transform="translate(0.5)" fill="white"/>
<rect x="0.5" width="24.5201" height="24" fill="black"/>
<path d="M4.8746 16.6462V17H10.6746V16.6462C9.35153 16.6462 9.13614 16.4615 9.13614 15.3077V12.2923C10.4131 12.2923 11.9054 14.6154 11.9054 15.8615C11.9054 16.3692 11.6592 16.6462 11.1823 16.6462H10.9515V17H16.09V16.6462H15.9515C15.3515 16.6462 15.1208 16.3077 14.8284 15.7231C13.4592 12.9846 12.5208 12.1692 10.7515 12.1692H10.2592V12.1231C13.2131 12.1231 14.8284 11.1846 14.8284 9.46154C14.8284 7.75385 13.2131 6.81538 10.2592 6.81538H4.8746V7.16923C6.19768 7.16923 6.41306 7.35385 6.41306 8.50769V15.3077C6.41306 16.4615 6.19768 16.6462 4.8746 16.6462ZM9.13614 10.6308V7.16923H10.2592C11.1669 7.16923 11.9515 8.24615 11.9515 9.46154C11.9515 10.6923 11.1669 11.7846 10.2592 11.7846H9.96691C9.32076 11.7846 9.13614 11.5385 9.13614 10.6308ZM16.2649 13.1538C16.2649 15.5231 18.0957 17.1231 20.788 17.1231C22.188 17.1231 23.3418 16.6 24.0495 15.6308L23.5418 15.2923C22.988 16.2923 21.8803 16.7692 21.0034 16.7692C18.9111 16.7692 18.8957 14.1538 18.8957 12.6615H24.0495C24.0495 10.5846 22.7418 9.18462 20.2957 9.18462C17.8495 9.18462 16.2649 10.7385 16.2649 13.1538ZM18.9111 12.3077C19.0188 10.4308 19.4803 9.53846 20.3265 9.53846C21.2034 9.53846 21.5726 10.3692 21.6342 12.3077H18.9111Z" fill="white"/>
<path d="M25.28 7.16923C26.0492 7.16923 26.3415 7.35385 26.9107 8.55385L30.9415 17H31.403C32.48 15.1538 35.2338 7.16923 37.4646 7.16923V6.81538H33.9877V7.16923C34.5723 7.16923 34.9723 7.26154 34.9723 7.63077C34.9723 8.41538 33.203 12.2615 32.3723 13.9231L29.8184 8.44615C29.4492 7.66154 29.5723 7.16923 30.1569 7.16923H30.9415V6.81538H24.8954V7.16923H25.28ZM36.1627 13.1538C36.1627 15.5231 37.9934 17.1231 40.6857 17.1231C42.0857 17.1231 43.2396 16.6 43.9473 15.6308L43.4396 15.2923C42.8857 16.2923 41.778 16.7692 40.9011 16.7692C38.8088 16.7692 38.7934 14.1538 38.7934 12.6615H43.9473C43.9473 10.5846 42.6396 9.18462 40.1934 9.18462C37.7473 9.18462 36.1627 10.7385 36.1627 13.1538ZM38.8088 12.3077C38.9165 10.4308 39.378 9.53846 40.2242 9.53846C41.1011 9.53846 41.4703 10.3692 41.5319 12.3077H38.8088Z" fill="black"/>
</svg>
