<svg width="192" height="95" viewBox="0 0 192 95" fill="none" xmlns="http://www.w3.org/2000/svg">
<rect width="191" height="95" transform="translate(0.5)" fill="white"/>
<rect x="0.5" width="97.5697" height="95" fill="black"/>
<path d="M17.4984 66.5846V68H40.6984V66.5846C35.4061 66.5846 34.5446 65.8462 34.5446 61.2308V49.1692C39.6523 49.1692 45.6215 58.4615 45.6215 63.4462C45.6215 65.4769 44.6369 66.5846 42.7292 66.5846H41.8061V68H62.3599V66.5846H61.8061C59.4061 66.5846 58.483 65.2308 57.3138 62.8923C51.8369 51.9385 48.083 48.6769 41.0061 48.6769H39.0369V48.4923C50.8523 48.4923 57.3138 44.7385 57.3138 37.8462C57.3138 31.0154 50.8523 27.2615 39.0369 27.2615H17.4984V28.6769C22.7907 28.6769 23.6523 29.4154 23.6523 34.0308V61.2308C23.6523 65.8462 22.7907 66.5846 17.4984 66.5846ZM34.5446 42.5231V28.6769H39.0369C42.6676 28.6769 45.8061 32.9846 45.8061 37.8462C45.8061 42.7692 42.6676 47.1385 39.0369 47.1385H37.8676C35.283 47.1385 34.5446 46.1538 34.5446 42.5231ZM63.0597 52.6154C63.0597 62.0923 70.3828 68.4923 81.152 68.4923C86.752 68.4923 91.3674 66.4 94.1981 62.5231L92.1674 61.1692C89.952 65.1692 85.5212 67.0769 82.0135 67.0769C73.6443 67.0769 73.5828 56.6154 73.5828 50.6462H94.1981C94.1981 42.3385 88.9674 36.7385 79.1828 36.7385C69.3981 36.7385 63.0597 42.9538 63.0597 52.6154ZM73.6443 49.2308C74.0751 41.7231 75.9212 38.1538 79.3058 38.1538C82.8135 38.1538 84.2905 41.4769 84.5366 49.2308H73.6443Z" fill="white"/>
<path d="M99.1199 28.6769C102.197 28.6769 103.366 29.4154 105.643 34.2154L121.766 68H123.612C127.92 60.6154 138.935 28.6769 147.858 28.6769V27.2615H133.951V28.6769C136.289 28.6769 137.889 29.0462 137.889 30.5231C137.889 33.6615 130.812 49.0462 127.489 55.6923L117.274 33.7846C115.797 30.6462 116.289 28.6769 118.628 28.6769H121.766V27.2615H97.5814V28.6769H99.1199ZM142.651 52.6154C142.651 62.0923 149.974 68.4923 160.743 68.4923C166.343 68.4923 170.958 66.4 173.789 62.5231L171.758 61.1692C169.543 65.1692 165.112 67.0769 161.604 67.0769C153.235 67.0769 153.174 56.6154 153.174 50.6462H173.789C173.789 42.3385 168.558 36.7385 158.774 36.7385C148.989 36.7385 142.651 42.9538 142.651 52.6154ZM153.235 49.2308C153.666 41.7231 155.512 38.1538 158.897 38.1538C162.404 38.1538 163.881 41.4769 164.128 49.2308H153.235Z" fill="black"/>
</svg>
